<svg width="480" height="220" viewBox="0 0 480 220" fill="none" xmlns="http://www.w3.org/2000/svg">
  <rect width="480" height="220" rx="20" fill="#F8FAFC"/>
  <rect x="24" y="24" width="190" height="172" rx="14" fill="#FFFFFF" stroke="#E2E8F0"/>
  <rect x="40" y="44" width="120" height="10" rx="5" fill="#CBD5E1"/>
  <rect x="40" y="66" width="70" height="32" rx="10" fill="#0EA5E9" fill-opacity="0.14"/>
  <rect x="120" y="66" width="70" height="32" rx="10" fill="#16A34A" fill-opacity="0.14"/>
  <rect x="40" y="112" width="150" height="8" rx="4" fill="#E2E8F0"/>
  <rect x="40" y="128" width="130" height="8" rx="4" fill="#E2E8F0"/>
  <rect x="40" y="144" width="100" height="8" rx="4" fill="#E2E8F0"/>

  <rect x="230" y="24" width="226" height="84" rx="14" fill="#FFFFFF" stroke="#E2E8F0"/>
  <rect x="248" y="44" width="120" height="10" rx="5" fill="#CBD5E1"/>
  <rect x="248" y="66" width="22" height="26" rx="6" fill="#0EA5E9"/>
  <rect x="278" y="58" width="22" height="34" rx="6" fill="#38BDF8"/>
  <rect x="308" y="49" width="22" height="43" rx="6" fill="#7DD3FC"/>
  <rect x="338" y="40" width="22" height="52" rx="6" fill="#BAE6FD"/>

  <rect x="230" y="122" width="226" height="74" rx="14" fill="#FFFFFF" stroke="#E2E8F0"/>
  <circle cx="262" cy="159" r="12" fill="#16A34A" fill-opacity="0.18"/>
  <circle cx="298" cy="159" r="12" fill="#F59E0B" fill-opacity="0.18"/>
  <circle cx="334" cy="159" r="12" fill="#EF4444" fill-opacity="0.18"/>
  <rect x="360" y="151" width="78" height="16" rx="8" fill="#E2E8F0"/>
</svg>
