<svg width="480" height="220" viewBox="0 0 480 220" fill="none" xmlns="http://www.w3.org/2000/svg">
  <rect width="480" height="220" rx="20" fill="#F8FAFC"/>
  <rect x="24" y="24" width="206" height="172" rx="14" fill="#FFFFFF" stroke="#E2E8F0"/>
  <rect x="42" y="44" width="120" height="10" rx="5" fill="#CBD5E1"/>
  <rect x="42" y="68" width="170" height="12" rx="6" fill="#0EA5E9" fill-opacity="0.14"/>
  <rect x="42" y="90" width="140" height="12" rx="6" fill="#16A34A" fill-opacity="0.14"/>
  <rect x="42" y="112" width="110" height="12" rx="6" fill="#F59E0B" fill-opacity="0.14"/>
  <rect x="42" y="142" width="42" height="30" rx="10" fill="#E2E8F0"/>
  <rect x="92" y="142" width="42" height="30" rx="10" fill="#E2E8F0"/>
  <rect x="142" y="142" width="42" height="30" rx="10" fill="#E2E8F0"/>

  <rect x="246" y="24" width="210" height="104" rx="14" fill="#FFFFFF" stroke="#E2E8F0"/>
  <rect x="264" y="44" width="88" height="10" rx="5" fill="#CBD5E1"/>
  <path d="M268 96C287 76 305 86 323 70C339 57 356 64 374 52C386 44 397 45 414 48" stroke="#0EA5E9" stroke-width="4" stroke-linecap="round"/>
  <circle cx="268" cy="96" r="4" fill="#0EA5E9"/>
  <circle cx="323" cy="70" r="4" fill="#0EA5E9"/>
  <circle cx="374" cy="52" r="4" fill="#0EA5E9"/>
  <circle cx="414" cy="48" r="4" fill="#0EA5E9"/>

  <rect x="246" y="138" width="210" height="58" rx="14" fill="#FFFFFF" stroke="#E2E8F0"/>
  <rect x="264" y="159" width="44" height="16" rx="8" fill="#16A34A" fill-opacity="0.18"/>
  <rect x="316" y="159" width="44" height="16" rx="8" fill="#0EA5E9" fill-opacity="0.18"/>
  <rect x="368" y="159" width="70" height="16" rx="8" fill="#E2E8F0"/>
</svg>
